<mxfile host="app.diagrams.net" modified="2020-10-11T00:02:53.767Z" agent="5.0 (Windows NT 10.0; Win64; x64) AppleWebKit/537.36 (KHTML, like Gecko) Chrome/85.0.4183.121 Safari/537.36" etag="lb5ndeEJUvzv40bwZvAU" version="13.7.9" type="github">
  <diagram id="klySL-yoXc_VsXjcWgvZ" name="Use Case Diagram">
    <mxGraphModel dx="522" dy="855" grid="1" gridSize="10" guides="1" tooltips="1" connect="1" arrows="1" fold="1" page="1" pageScale="1" pageWidth="850" pageHeight="1100" math="0" shadow="0">
      <root>
        <mxCell id="0" />
        <mxCell id="1" parent="0" />
        <mxCell id="cxU1EgE2nvqe68VGwKP_-1" value="Actor" style="shape=umlActor;verticalLabelPosition=bottom;verticalAlign=top;html=1;" vertex="1" parent="1">
          <mxGeometry x="50" y="250" width="30" height="60" as="geometry" />
        </mxCell>
        <mxCell id="cxU1EgE2nvqe68VGwKP_-4" value="wcOO application" style="rounded=0;whiteSpace=wrap;html=1;fillColor=none;align=left;verticalAlign=top;" vertex="1" parent="1">
          <mxGeometry x="120" y="140" width="420" height="420" as="geometry" />
        </mxCell>
        <mxCell id="cxU1EgE2nvqe68VGwKP_-5" value="Use Case" style="ellipse;whiteSpace=wrap;html=1;fillColor=none;align=center;" vertex="1" parent="1">
          <mxGeometry x="155" y="180" width="140" height="70" as="geometry" />
        </mxCell>
      </root>
    </mxGraphModel>
  </diagram>
</mxfile>
